<svg width="19" height="18" viewBox="0 0 19 18" fill="none" xmlns="http://www.w3.org/2000/svg">
<path d="M18.2383 14.9625C18.1958 14.8942 18.1403 14.8349 18.075 14.7881C18.0096 14.7412 17.9356 14.7078 17.8572 14.6896C17.7789 14.6715 17.6977 14.6689 17.6184 14.6822C17.5391 14.6955 17.4631 14.7243 17.395 14.7669C16.4644 15.3463 15.4157 15.7097 14.3262 15.8303C13.2367 15.951 12.1339 15.8258 11.0991 15.4641C10.0644 15.1023 9.12382 14.5132 8.34674 13.74C7.56966 12.9669 6.9758 12.0293 6.60884 10.9964H13.765C13.927 10.9964 14.0825 10.932 14.1971 10.8174C14.3117 10.7028 14.3761 10.5473 14.3761 10.3853C14.3761 10.2232 14.3117 10.0677 14.1971 9.95314C14.0825 9.83853 13.927 9.77415 13.765 9.77415H6.29107C6.14385 8.96598 6.14385 8.13787 6.29107 7.3297H13.765C13.927 7.3297 14.0825 7.26532 14.1971 7.15071C14.3117 7.03611 14.3761 6.88067 14.3761 6.71859C14.3761 6.55652 14.3117 6.40108 14.1971 6.28647C14.0825 6.17187 13.927 6.10748 13.765 6.10748H6.60884C6.97464 5.07654 7.56645 4.1405 8.34091 3.36793C9.11537 2.59536 10.0529 2.00584 11.0847 1.64256C12.1165 1.27928 13.2165 1.15145 14.3042 1.26842C15.3918 1.3854 16.4395 1.74422 17.3705 2.31859C17.5083 2.40449 17.6745 2.43215 17.8327 2.39548C17.9908 2.3588 18.1279 2.2608 18.2138 2.12304C18.2997 1.98527 18.3274 1.81903 18.2907 1.66087C18.2541 1.50271 18.1561 1.36561 18.0183 1.2797C16.901 0.588534 15.6396 0.163949 14.3318 0.0388667C13.024 -0.0862159 11.705 0.091564 10.4769 0.558424C9.24892 1.02528 8.14491 1.76868 7.2505 2.73099C6.3561 3.69329 5.69532 4.84864 5.3194 6.10748H1.16385C1.00177 6.10748 0.84633 6.17187 0.731725 6.28647C0.617119 6.40108 0.552734 6.55652 0.552734 6.71859C0.552734 6.88067 0.617119 7.03611 0.731725 7.15071C0.84633 7.26532 1.00177 7.3297 1.16385 7.3297H5.05662C4.99484 7.73425 4.96216 8.1427 4.95885 8.55193C4.96216 8.96115 4.99484 9.3696 5.05662 9.77415H1.16385C1.00177 9.77415 0.84633 9.83853 0.731725 9.95314C0.617119 10.0677 0.552734 10.2232 0.552734 10.3853C0.552734 10.5473 0.617119 10.7028 0.731725 10.8174C0.84633 10.932 1.00177 10.9964 1.16385 10.9964H5.3194C5.69611 12.2582 6.35901 13.416 7.25647 14.3797C8.15392 15.3433 9.26171 16.0868 10.4936 16.5522C11.7254 17.0176 13.0481 17.1924 14.3585 17.063C15.669 16.9335 16.9319 16.5033 18.0488 15.8058C18.1167 15.7629 18.1754 15.707 18.2216 15.6414C18.2678 15.5758 18.3007 15.5017 18.3183 15.4234C18.3358 15.3451 18.3378 15.2641 18.3241 15.185C18.3104 15.1059 18.2812 15.0303 18.2383 14.9625Z" fill="black"/>
</svg>
