<svg width="16" height="18" viewBox="0 0 16 18" fill="none" xmlns="http://www.w3.org/2000/svg">
<path d="M14.4638 10.0933H5.71716C6.34186 9.8094 7.01871 9.59576 7.71751 9.3779C8.98187 8.98397 10.2831 8.57575 11.3415 7.686H14.4638C14.7169 7.686 14.9221 7.48083 14.9221 7.22767C14.9221 6.97451 14.7169 6.76934 14.4638 6.76934H12.1651C12.7078 5.91932 12.8418 4.87679 12.5134 3.81273C12.0278 2.23936 10.6392 0.924156 9.13638 0.614423C7.74115 0.326532 6.1855 0.64092 4.977 1.45482C3.91997 2.16667 3.2194 3.2015 3.00402 4.36917C2.95819 4.61803 3.12272 4.85723 3.37176 4.90306C3.62026 4.94746 3.85964 4.78454 3.90565 4.53532C4.07573 3.61221 4.63809 2.78828 5.48905 2.21537C6.49738 1.5361 7.79056 1.27184 8.95161 1.51247C10.1415 1.75739 11.2461 2.81478 11.6375 4.08307C11.8144 4.65599 11.9773 5.75492 11.0832 6.67874C11.0518 6.71124 11.0169 6.73809 10.9847 6.76934H1.53646C1.2833 6.76934 1.07812 6.97451 1.07812 7.22767C1.07812 7.48083 1.2833 7.686 1.53646 7.686H9.65366C8.97305 8.02176 8.22246 8.26031 7.44484 8.50277C6.23024 8.88145 4.98018 9.27359 3.94047 10.0933H1.53646C1.2833 10.0933 1.07812 10.2985 1.07812 10.5517C1.07812 10.8048 1.2833 11.01 1.53646 11.01H3.07452C2.34521 12.1398 2.32511 13.7014 3.0853 15.0505C4.06911 16.7961 5.97961 17.4875 7.81294 17.4875C8.45031 17.4875 9.07837 17.4041 9.65487 17.2523C12.0697 16.616 13.5672 14.9248 13.5632 12.839C13.5629 12.5859 13.3577 12.3814 13.1049 12.3814C13.1045 12.3814 13.1042 12.3814 13.1042 12.3814C12.851 12.3818 12.6462 12.5877 12.6466 12.8405C12.6505 14.8124 10.983 15.9543 9.4214 16.3657C7.45558 16.8831 4.9224 16.4434 3.88381 14.6007C3.31519 13.5913 3.16641 12.0624 4.18369 11.0913C4.21415 11.0622 4.24752 11.038 4.2786 11.01H14.4638C14.7169 11.01 14.9221 10.8048 14.9221 10.5517C14.9221 10.2985 14.7169 10.0933 14.4638 10.0933Z" fill="#1D1C1A" stroke="black" stroke-width="0.7"/>
</svg>
